<svg width="30" height="62" viewBox="0 0 30 62" fill="none" xmlns="http://www.w3.org/2000/svg">
<path d="M10.6891 4.91042C12.5787 4.87485 14.4706 4.6665 16.3573 4.55906C17.6204 4.48647 18.8843 4.43928 20.1504 4.42694C20.7471 4.42113 21.3438 4.44001 21.9398 4.47413C22.6839 4.51696 22.5213 4.84871 22.0356 4.27231C23.8476 6.42329 26.9133 3.32568 25.1151 1.19285C23.7605 -0.415118 20.3964 0.0494872 18.5772 0.102481C15.9442 0.178706 13.3199 0.504655 10.6891 0.554745C7.88405 0.60774 7.87897 4.96341 10.6891 4.91042Z" fill="#F7D046"/>
<path d="M16.4619 23.8889C18.2049 24.143 19.9638 24.1836 21.7213 24.2664C22.7965 24.3172 23.8709 24.3833 24.9431 24.49C25.2429 24.5197 25.5362 24.5735 25.8331 24.6308C26.6382 24.7869 26.2774 24.9401 25.6872 24.1589C27.3576 26.3702 31.1427 24.2039 29.449 21.9608C28.1779 20.278 26.0277 20.2214 24.0763 20.0544C21.9834 19.8744 19.5225 19.9666 17.6212 19.6893C14.8742 19.2886 13.6917 23.4845 16.4619 23.8889Z" fill="#F7D046"/>
<path d="M1.9429 31.8744C5.02672 32.8406 8.33195 32.2018 11.3802 33.1448C14.0713 33.9767 15.2125 29.7721 12.5388 28.9445C9.46442 27.9935 6.17153 28.6367 3.10151 27.6741C0.413331 26.832 -0.727856 31.0374 1.9429 31.8744Z" fill="#F7D046"/>
<path d="M4.25943 30.1713C6.23835 21.1906 10.022 12.7791 13.659 4.37626C14.7624 1.82674 11.0107 -0.393933 9.89712 2.17809C6.11422 10.9192 2.11716 19.6705 0.0591025 29.0141C-0.544158 31.7509 3.65544 32.9146 4.25943 30.1713Z" fill="#F7D046"/>
<path d="M18.9598 22.3672C20.9053 16.1197 22.7158 9.9593 26.5445 4.55754C28.172 2.25992 24.3928 0.0878888 22.7826 2.35937C18.7449 8.05732 16.8117 14.6177 14.7595 21.21C13.9225 23.8989 18.1271 25.0401 18.9598 22.3672Z" fill="#F7D046"/>
<path d="M4.22164 60.4556C6.32253 56.1609 7.37878 51.4778 9.07676 47.0256C11.0586 41.8322 13.492 36.8065 15.5108 31.6232C16.5315 29.0025 12.3196 27.8781 11.3112 30.4653C9.42957 35.2936 7.3207 40.0239 5.32217 44.8028C3.4819 49.2034 2.55777 53.9678 0.45979 58.2567C-0.76851 60.7699 2.98753 62.979 4.22164 60.4556Z" fill="#F7D046"/>
<path d="M4.94775 59.9115C12.8577 47.8353 21.638 36.3611 29.6299 24.3401C31.1892 21.9939 27.415 19.8153 25.8681 22.142C17.8761 34.1629 9.09653 45.6372 1.1859 57.7133C-0.358186 60.0704 3.41528 62.2505 4.94775 59.9115Z" fill="#F7D046"/>
</svg>
