<svg width="196" height="59" viewBox="0 0 196 59" fill="none" xmlns="http://www.w3.org/2000/svg">
<path d="M2 56.8974C2 56.8974 8.34731 36.4453 21.531 36.4453C34.7148 36.4453 41.4508 56.8974 54.6345 56.8974C67.8182 56.8974 74.5542 36.4453 87.7379 36.4453C100.922 36.4453 107.658 56.8974 120.841 56.8974C134.025 56.8974 132.097 36.4453 153.945 36.4453C175.793 36.4453 194 49.3624 194 49.3624" stroke="#53B6D5" stroke-width="4" stroke-linecap="round"/>
<path d="M2 39.6748C2 39.6748 8.34731 19.2227 21.531 19.2227C34.7148 19.2227 41.4508 39.6748 54.6345 39.6748C67.8182 39.6748 74.5542 19.2227 87.7379 19.2227C100.922 19.2227 107.658 39.6748 120.841 39.6748C134.025 39.6748 132.097 19.2227 153.945 19.2227C175.793 19.2227 194 32.1398 194 32.1398" stroke="#53B6D5" stroke-width="4" stroke-linecap="round"/>
<path d="M2 22.4521C2 22.4521 8.34731 2 21.531 2C34.7148 2 41.4508 22.4521 54.6345 22.4521C67.8182 22.4521 74.5542 2 87.7379 2C100.922 2 107.658 22.4521 120.841 22.4521C134.025 22.4521 132.097 2 153.945 2C175.793 2 194 14.9171 194 14.9171" stroke="#53B6D5" stroke-width="4" stroke-linecap="round"/>
</svg>
