<svg width="165" height="61" viewBox="0 0 165 61" fill="none" xmlns="http://www.w3.org/2000/svg">
<path d="M99.1342 32.1297H96.7259L91.2299 29.8184V28.8057L99.1342 32.1297Z" fill="white"/>
<path d="M165 32.1293H156.502L91.1267 3.52818V0L165 32.1293Z" fill="white"/>
<path d="M142.19 32.1296H139.825L91.1267 11.1892V10.1602L142.19 32.1296Z" fill="white"/>
<path d="M150.456 32.1293H148.091L91.1267 7.70155V6.68066L150.456 32.1293Z" fill="white"/>
<path d="M134.174 32.1297H131.792L91.1267 14.6929V13.8436L91.1869 13.7129L134.174 32.1297Z" fill="white"/>
<path d="M125.668 32.1297H123.303L91.1267 18.2865V17.2656L125.668 32.1297Z" fill="white"/>
<path d="M108.096 32.1297H105.714L91.1267 25.89V24.8691L108.096 32.1297Z" fill="white"/>
<path d="M117.041 32.1298H114.659L91.1267 22.1088V21.0879L117.041 32.1298Z" fill="white"/>
<path d="M0 0V32.0803H91.1267V0H0Z" fill="white"/>
<path d="M0.0516052 32.0723L36.5711 61.0001V32.0723H0.0516052Z" fill="white"/>
<path d="M165 32.1289H36.5625V60.9832H165V32.1289Z" fill="#E25536"/>
<path d="M48.7156 54.1889H45.8257V38.5244H48.7156V54.1889Z" fill="white"/>
<path d="M51.5625 54.1886V38.2383H54.2976V54.1804H51.5625V54.1886Z" fill="white"/>
<path d="M56.7747 54.1886V38.2383H59.5098V54.1804H56.7747V54.1886Z" fill="white"/>
<path d="M72.2563 43.5954V54.18H69.7018L69.4954 52.7671C68.816 53.7716 67.371 54.4577 65.883 54.4577C63.3114 54.4577 61.7976 52.8079 61.7976 50.2108V43.5873H64.5499V49.2879C64.5499 51.3052 65.3842 52.1137 66.9238 52.1137C68.6611 52.1137 69.4954 51.15 69.4954 49.1327V43.5791H72.2563V43.5954Z" fill="white"/>
<path d="M76.1783 50.9707C76.2041 51.8936 76.9266 52.4735 78.1909 52.4735C79.4811 52.4735 80.1777 51.9835 80.1777 51.2076C80.1777 50.6686 79.8853 50.2847 78.8876 50.0724L76.875 49.6232C74.8624 49.1985 73.8991 48.2919 73.8991 46.6013C73.8991 44.5187 75.7483 43.2773 78.3199 43.2773C80.8228 43.2773 82.5172 44.6494 82.543 46.7075H79.9283C79.9025 45.8091 79.2746 45.2293 78.2167 45.2293C77.133 45.2293 76.5052 45.703 76.5052 46.4952C76.5052 47.0914 77.004 47.4834 77.9501 47.6957L79.9627 48.1449C81.8377 48.5533 82.7838 49.37 82.7838 50.9952C82.7838 53.135 80.8658 54.4663 78.1135 54.4663C75.3354 54.4663 73.5808 53.0533 73.5808 50.9707H76.1783Z" fill="white"/>
<path d="M85.4587 54.1891V45.7852H83.3171V43.5964H85.4587V40.2969H88.211V43.5964H90.3784V45.7852H88.211V54.1891H85.4587Z" fill="white"/>
<path d="M98.6353 45.9808H97.6204C95.6336 45.9808 94.3951 46.9854 94.3951 49.0435V54.1888H91.6428V43.6205H94.2403L94.3951 45.1641C94.8681 44.1106 95.926 43.4082 97.4226 43.4082C97.8096 43.4082 98.1881 43.449 98.6439 43.5552V45.9808H98.6353Z" fill="white"/>
<path d="M99.117 51.1668C99.117 49.2148 100.605 47.9979 103.245 47.8019L106.583 47.5651V47.3282C106.583 45.8908 105.679 45.3109 104.278 45.3109C102.652 45.3109 101.749 45.9561 101.749 47.0669H99.4008C99.4008 44.7719 101.388 43.2773 104.415 43.2773C107.417 43.2773 109.266 44.8209 109.266 47.7529V54.1804H106.849L106.643 52.6123C106.17 53.7067 104.656 54.4581 102.919 54.4581C100.562 54.4663 99.117 53.1595 99.117 51.1668ZM106.608 49.9009V49.3455L104.286 49.517C102.575 49.664 101.912 50.203 101.912 51.0606C101.912 52.0243 102.592 52.498 103.83 52.498C105.525 52.498 106.608 51.5261 106.608 49.9009Z" fill="white"/>
<path d="M112.405 54.1891V45.7852H110.264V43.5964H112.405V40.2969H115.158V43.5964H117.325V45.7852H115.158V54.1891H112.405Z" fill="white"/>
<path d="M118.409 40.574C118.409 39.7573 119.131 39.0713 119.966 39.0713C120.826 39.0713 121.548 39.7818 121.548 40.574C121.548 41.3907 120.826 42.0768 119.966 42.0768C119.114 42.0768 118.409 41.4152 118.409 40.574ZM118.589 43.5959H121.342V54.1804H118.589V43.5959Z" fill="white"/>
<path d="M129.04 43.3018C132.497 43.3018 135 45.5722 135 48.8717C135 52.1712 132.497 54.4417 129.04 54.4417C125.582 54.4417 123.079 52.1712 123.079 48.8717C123.079 45.5722 125.591 43.3018 129.04 43.3018ZM129.04 52.1059C130.932 52.1059 132.248 50.7991 132.248 48.8717C132.248 46.9443 130.94 45.6375 129.04 45.6375C127.147 45.6375 125.831 46.9443 125.831 48.8717C125.831 50.7991 127.147 52.1059 129.04 52.1059Z" fill="white"/>
<path d="M136.737 54.1886V43.5959H139.292L139.516 44.9679C140.212 43.898 141.571 43.2773 143.085 43.2773C145.88 43.2773 147.325 44.9271 147.325 47.6712V54.1886H144.573V48.2919C144.573 46.5115 143.644 45.654 142.225 45.654C140.53 45.654 139.49 46.7647 139.49 48.4798V54.1804H136.737V54.1886Z" fill="white"/>
<path d="M151.204 50.9707C151.23 51.8936 151.952 52.4735 153.217 52.4735C154.507 52.4735 155.204 51.9835 155.204 51.2076C155.204 50.6686 154.911 50.2847 153.913 50.0724L151.901 49.6232C149.888 49.1985 148.925 48.2919 148.925 46.6013C148.925 44.5187 150.774 43.2773 153.346 43.2773C155.849 43.2773 157.543 44.6494 157.569 46.7075H154.954C154.928 45.8091 154.3 45.2293 153.243 45.2293C152.159 45.2293 151.531 45.703 151.531 46.4952C151.531 47.0914 152.03 47.4834 152.976 47.6957L154.989 48.1449C156.864 48.5533 157.81 49.37 157.81 50.9952C157.81 53.135 155.892 54.4663 153.139 54.4663C150.361 54.4663 148.607 53.0533 148.607 50.9707H151.204Z" fill="white"/>
<path d="M87.7208 3.22559H3.39737V28.8539H87.7208V3.22559Z" fill="#090909"/>
<path d="M15.5419 7.31738C18.879 7.31738 21.0034 9.07331 21.0981 11.9073H18.2082C18.1393 10.5597 17.1244 9.76751 15.4989 9.76751C13.7185 9.76751 12.566 10.5842 12.566 11.891C12.566 13.0017 13.1938 13.6305 14.5786 13.9246L17.176 14.4636C19.9971 15.0435 21.3733 16.4155 21.3733 18.7513C21.3733 21.667 18.9822 23.5536 15.344 23.5536C11.8263 23.5536 9.52123 21.7731 9.45242 18.9637H12.3423C12.3681 20.2949 13.4949 21.0871 15.344 21.0871C17.2621 21.0871 18.4834 20.2949 18.4834 18.9882C18.4834 17.9346 17.9157 17.3139 16.5654 17.0362L13.9507 16.4809C11.1554 15.901 9.68465 14.3819 9.68465 11.9808C9.67605 9.22848 12.0671 7.31738 15.5419 7.31738Z" fill="white"/>
<path d="M24.1686 23.2682V14.8643H22.0184V12.6755H24.1686V9.37598H26.9209V12.6755H29.0883V14.8643H26.9209V23.2682H24.1686Z" fill="white"/>
<path d="M29.785 20.238C29.785 18.2861 31.273 17.0692 33.9134 16.8732L37.2506 16.6364V16.3995C37.2506 14.9621 36.3475 14.3822 34.9456 14.3822C33.32 14.3822 32.4169 15.0274 32.4169 16.1382H30.0688C30.0688 13.8432 32.0556 12.3486 35.0832 12.3486C38.0849 12.3486 39.9341 13.8922 39.9341 16.8242V23.2517H37.5172L37.3108 21.6836C36.8378 22.778 35.324 23.5294 33.5866 23.5294C31.23 23.5457 29.785 22.239 29.785 20.238ZM37.2764 18.9803V18.4249L34.9542 18.5965C33.2426 18.7435 32.5803 19.2825 32.5803 20.14C32.5803 21.1038 33.2598 21.5774 34.4983 21.5774C36.1927 21.5693 37.2764 20.6056 37.2764 18.9803Z" fill="white"/>
<path d="M49.1973 15.0518H48.1824C46.1955 15.0518 44.957 16.0563 44.957 18.1144V23.2597H42.2047V12.6996H44.8022L44.957 14.2432C45.4301 13.1897 46.488 12.4873 47.9845 12.4873C48.3716 12.4873 48.75 12.5281 49.2059 12.6343V15.0518H49.1973Z" fill="white"/>
<path d="M52.1044 23.2682V14.8643H49.9628V12.6755H52.1044V9.37598H54.8567V12.6755H57.0241V14.8643H54.8567V23.2682H52.1044Z" fill="white"/>
<path d="M68.6009 12.6752V23.2597H66.0551L65.8486 21.8468C65.1692 22.8514 63.7242 23.5374 62.2362 23.5374C59.6646 23.5374 58.1508 21.8876 58.1508 19.2905V12.667H60.9031V18.3758C60.9031 20.3931 61.7374 21.2016 63.277 21.2016C65.0143 21.2016 65.8486 20.2379 65.8486 18.2206V12.667H68.6009V12.6752Z" fill="white"/>
<path d="M71.0006 12.675H73.5551L73.7357 14.2839C74.4151 13.0588 75.8773 12.3564 77.5717 12.3564C80.711 12.3564 82.7838 14.5207 82.7838 17.8447C82.7838 21.1442 80.8916 23.5454 77.5717 23.5454C75.9031 23.5454 74.4581 22.9247 73.7615 21.8548V28.1761H71.0092V12.675H71.0006ZM76.9094 21.1851C78.8532 21.1851 79.9971 19.8538 79.9971 17.9672C79.9971 16.0806 78.8446 14.7331 76.9094 14.7331C75.0172 14.7331 73.7701 16.0643 73.7701 17.9672C73.7701 19.8702 75.0172 21.1851 76.9094 21.1851Z" fill="white"/>
</svg>
