<svg width="148" height="57" viewBox="0 0 148 57" fill="none" xmlns="http://www.w3.org/2000/svg">
<path d="M88.9203 30.0225H86.7602L81.8305 27.8628V26.9165L88.9203 30.0225Z" fill="black"/>
<path d="M148 30.0225H140.378L81.7379 3.29683V0L148 30.0225Z" fill="black"/>
<path d="M127.54 30.0225H125.419L81.7379 10.4552V9.49365L127.54 30.0225Z" fill="black"/>
<path d="M134.954 30.0224H132.833L81.7379 7.1965V6.24255L134.954 30.0224Z" fill="black"/>
<path d="M120.35 30.0225H118.213L81.7379 13.7291V12.9355L81.7919 12.8134L120.35 30.0225Z" fill="black"/>
<path d="M112.72 30.0225H110.599L81.7379 17.087V16.1331L112.72 30.0225Z" fill="black"/>
<path d="M96.9591 30.0225H94.8222L81.7379 24.192V23.238L96.9591 30.0225Z" fill="black"/>
<path d="M104.982 30.0224H102.845L81.7379 20.6585V19.7046L104.982 30.0224Z" fill="black"/>
<path d="M0 0V29.9767H81.7379V0H0Z" fill="#010202"/>
<path d="M0.0462875 29.9691L32.8032 57V29.9691H0.0462875Z" fill="#010202"/>
<path d="M148 30.0225H32.7955V56.9847H148V30.0225Z" fill="#E25536"/>
<path d="M43.6964 50.6352H41.1042V35.9979H43.6964V50.6352Z" fill="white"/>
<path d="M46.25 50.6352V35.7308H48.7033V50.6276H46.25V50.6352Z" fill="white"/>
<path d="M50.9251 50.6352V35.7308H53.3784V50.6276H50.9251V50.6352Z" fill="white"/>
<path d="M64.8117 40.7372V50.6277H62.5204L62.3353 49.3074C61.7258 50.2461 60.4297 50.8871 59.0951 50.8871C56.7884 50.8871 55.4306 49.3456 55.4306 46.9187V40.7296H57.8993V46.0564C57.8993 47.9414 58.6476 48.6969 60.0286 48.6969C61.587 48.6969 62.3353 47.7964 62.3353 45.9114V40.7219H64.8117V40.7372Z" fill="white"/>
<path d="M68.3296 47.6284C68.3528 48.4907 69.0008 49.0326 70.1349 49.0326C71.2921 49.0326 71.917 48.5747 71.917 47.8497C71.917 47.346 71.6547 46.9873 70.7598 46.7889L68.9545 46.3692C67.1493 45.9723 66.2852 45.1252 66.2852 43.5455C66.2852 41.5994 67.9439 40.4395 70.2506 40.4395C72.4956 40.4395 74.0154 41.7216 74.0386 43.6447H71.6933C71.6701 42.8052 71.107 42.2634 70.158 42.2634C69.186 42.2634 68.6228 42.706 68.6228 43.4463C68.6228 44.0034 69.0703 44.3697 69.9189 44.5681L71.7241 44.9879C73.406 45.3694 74.2546 46.1326 74.2546 47.6513C74.2546 49.6507 72.5342 50.8947 70.0655 50.8947C67.5736 50.8947 65.9998 49.5744 65.9998 47.6284H68.3296Z" fill="white"/>
<path d="M76.6539 50.6352V42.7823H74.7329V40.7371H76.6539V37.6539H79.1226V40.7371H81.0667V42.7823H79.1226V50.6352H76.6539Z" fill="white"/>
<path d="M88.4729 42.9656H87.5626C85.7805 42.9656 84.6695 43.9043 84.6695 45.8274V50.6353H82.2008V40.7601H84.5307L84.6695 42.2024C85.0938 41.218 86.0428 40.5616 87.3851 40.5616C87.7323 40.5616 88.0717 40.5998 88.4806 40.699V42.9656H88.4729Z" fill="white"/>
<path d="M88.9049 47.8115C88.9049 45.9876 90.2396 44.8505 92.608 44.6673L95.6013 44.446V44.2247C95.6013 42.8815 94.7913 42.3397 93.5338 42.3397C92.0757 42.3397 91.2656 42.9426 91.2656 43.9805H89.1595C89.1595 41.836 90.9416 40.4395 93.6572 40.4395C96.3497 40.4395 98.0083 41.8818 98.0083 44.6215V50.6276H95.8405L95.6553 49.1623C95.231 50.1849 93.8732 50.887 92.3148 50.887C90.201 50.8947 88.9049 49.6736 88.9049 47.8115ZM95.6245 46.6286V46.1097L93.5415 46.2699C92.0062 46.4073 91.4122 46.911 91.4122 47.7123C91.4122 48.6128 92.0217 49.0555 93.1326 49.0555C94.6524 49.0555 95.6245 48.1473 95.6245 46.6286Z" fill="white"/>
<path d="M100.824 50.6352V42.7823H98.9033V40.7371H100.824V37.6539H103.293V40.7371H105.237V42.7823H103.293V50.6352H100.824Z" fill="white"/>
<path d="M106.209 37.9135C106.209 37.1503 106.857 36.5093 107.605 36.5093C108.377 36.5093 109.025 37.1732 109.025 37.9135C109.025 38.6766 108.377 39.3177 107.605 39.3177C106.842 39.3177 106.209 38.6995 106.209 37.9135ZM106.371 40.7372H108.84V50.6276H106.371V40.7372Z" fill="white"/>
<path d="M115.745 40.4624C118.846 40.4624 121.091 42.584 121.091 45.6671C121.091 48.7503 118.846 50.8718 115.745 50.8718C112.643 50.8718 110.398 48.7503 110.398 45.6671C110.398 42.584 112.651 40.4624 115.745 40.4624ZM115.745 48.6892C117.442 48.6892 118.622 47.4682 118.622 45.6671C118.622 43.8661 117.45 42.645 115.745 42.645C114.047 42.645 112.867 43.8661 112.867 45.6671C112.867 47.4682 114.047 48.6892 115.745 48.6892Z" fill="white"/>
<path d="M122.649 50.6352V40.7371H124.941L125.141 42.0192C125.766 41.0194 126.985 40.4395 128.343 40.4395C130.85 40.4395 132.146 41.981 132.146 44.5452V50.6352H129.677V45.1252C129.677 43.4615 128.844 42.6602 127.571 42.6602C126.052 42.6602 125.118 43.6981 125.118 45.3007V50.6276H122.649V50.6352Z" fill="white"/>
<path d="M135.626 47.6284C135.649 48.4907 136.297 49.0326 137.431 49.0326C138.588 49.0326 139.213 48.5747 139.213 47.8497C139.213 47.346 138.951 46.9873 138.056 46.7889L136.25 46.3692C134.445 45.9723 133.581 45.1252 133.581 43.5455C133.581 41.5994 135.24 40.4395 137.547 40.4395C139.791 40.4395 141.311 41.7216 141.334 43.6447H138.989C138.966 42.8052 138.403 42.2634 137.454 42.2634C136.482 42.2634 135.919 42.706 135.919 43.4463C135.919 44.0034 136.366 44.3697 137.215 44.5681L139.02 44.9879C140.702 45.3694 141.55 46.1326 141.55 47.6513C141.55 49.6507 139.83 50.8947 137.361 50.8947C134.869 50.8947 133.296 49.5744 133.296 47.6284H135.626Z" fill="white"/>
<path d="M78.6829 3.0144H3.04733V26.9622H78.6829V3.0144Z" fill="white"/>
<path d="M13.9406 6.83789C16.9339 6.83789 18.8394 8.47867 18.9243 11.1268H16.3321C16.2704 9.86761 15.3601 9.12735 13.902 9.12735C12.305 9.12735 11.2713 9.89051 11.2713 11.1116C11.2713 12.1494 11.8344 12.7371 13.0765 13.0118L15.4064 13.5155C17.9368 14.0573 19.1712 15.3394 19.1712 17.5221C19.1712 20.2465 17.0265 22.0094 13.7631 22.0094C10.6078 22.0094 8.54024 20.3457 8.47852 17.7205H11.0707C11.0938 18.9644 12.1045 19.7047 13.7631 19.7047C15.4835 19.7047 16.579 18.9644 16.579 17.7434C16.579 16.7589 16.0698 16.1789 14.8586 15.9194L12.5133 15.4005C10.006 14.8586 8.68682 13.4392 8.68682 11.1955C8.67911 8.62367 10.8238 6.83789 13.9406 6.83789Z" fill="#010202"/>
<path d="M21.6785 21.7422V13.8894H19.7498V11.8441H21.6785V8.76099H24.1472V11.8441H26.0913V13.8894H24.1472V21.7422H21.6785Z" fill="#010202"/>
<path d="M26.7162 18.911C26.7162 17.0871 28.0509 15.95 30.4193 15.7668L33.4126 15.5455V15.3242C33.4126 13.981 32.6026 13.4392 31.3451 13.4392C29.887 13.4392 29.0769 14.0421 29.0769 15.08H26.9708C26.9708 12.9355 28.7529 11.5389 31.4685 11.5389C34.161 11.5389 35.8196 12.9813 35.8196 15.721V21.727H33.6518L33.4666 20.2618C33.0423 21.2844 31.6845 21.9865 30.1261 21.9865C28.0123 22.0018 26.7162 20.7807 26.7162 18.911ZM33.4358 17.7358V17.2168L31.3528 17.3771C29.8176 17.5144 29.2235 18.0181 29.2235 18.8194C29.2235 19.72 29.833 20.1626 30.9439 20.1626C32.4637 20.155 33.4358 19.2544 33.4358 17.7358Z" fill="#010202"/>
<path d="M44.1284 14.065H43.2181C41.436 14.065 40.325 15.0037 40.325 16.9268V21.7347H37.8563V11.8671H40.1862L40.325 13.3095C40.7494 12.325 41.6983 11.6687 43.0406 11.6687C43.3878 11.6687 43.7273 11.7069 44.1361 11.8061V14.065H44.1284Z" fill="#010202"/>
<path d="M46.736 21.7422V13.8894H44.8151V11.8441H46.736V8.76099H49.2048V11.8441H51.1489V13.8894H49.2048V21.7422H46.736Z" fill="#010202"/>
<path d="M61.5329 11.8442V21.7347H59.2494L59.0642 20.4144C58.4548 21.3531 57.1587 21.9941 55.824 21.9941C53.5173 21.9941 52.1595 20.4526 52.1595 18.0257V11.8365H54.6282V17.171C54.6282 19.056 55.3766 19.8115 56.7575 19.8115C58.3159 19.8115 59.0642 18.911 59.0642 17.026V11.8365H61.5329V11.8442Z" fill="#010202"/>
<path d="M63.6853 11.8441H65.9766L66.1386 13.3476C66.7481 12.2028 68.0596 11.5465 69.5794 11.5465C72.3953 11.5465 74.2546 13.5689 74.2546 16.6749C74.2546 19.758 72.5573 22.0017 69.5794 22.0017C68.0828 22.0017 66.7867 21.4217 66.1618 20.422V26.3288H63.6931V11.8441H63.6853ZM68.9854 19.7962C70.7289 19.7962 71.755 18.5523 71.755 16.7894C71.755 15.0265 70.7212 13.7673 68.9854 13.7673C67.2881 13.7673 66.1695 15.0112 66.1695 16.7894C66.1695 18.5675 67.2881 19.7962 68.9854 19.7962Z" fill="#010202"/>
</svg>
