<svg width="53" height="61" viewBox="0 0 53 61" fill="none" xmlns="http://www.w3.org/2000/svg">
<path d="M33.6868 50.8079C33.5497 51.8291 33.4672 52.857 33.4395 53.8871C33.4395 57.6443 31.5091 59.8779 27.9114 60.5559C23.524 61.3537 20.9314 59.9896 19.4317 55.9531C18.3787 53.1292 17.6129 50.2016 16.6716 47.1783C11.1674 49.4677 5.64721 51.0631 1.2199 45.9179C-1.2929 43.0142 0.182872 38.89 4.66602 33.8644C0.797111 29.4531 0.310506 26.6212 2.79139 22.9996C5.43183 19.1546 7.115 18.9791 15.156 21.9785C11.3828 16.6897 10.9121 11.2652 12.1486 5.51371C13.3372 -0.0144422 17.3736 -1.66571 21.7211 1.84423C26.7228 5.89661 28.7171 11.2971 28.3342 18.0777C29.1052 17.7926 29.8412 17.4206 30.5279 16.9689C36.2714 11.8476 42.8925 11.329 49.3779 15.541C53.526 18.2372 54.2599 21.9227 50.8058 25.4885C47.9898 28.3602 44.5836 30.6497 41.8076 32.8992C44.0571 35.6673 46.9369 38.6747 49.1705 42.0889C51.9625 46.3566 49.6969 51.2067 44.5756 51.6614C41.0577 51.9965 37.4441 51.1509 33.6868 50.8079ZM42.4617 15.5649C35.6333 15.3017 31.6208 18.1575 29.1638 23.2309C28.5894 24.4195 28.0869 26.701 28.6612 27.2195C30.5199 28.8149 33.3199 31.3277 34.9951 30.8491C39.3107 29.6047 43.3711 27.1876 47.2081 24.7306C48.5482 23.8691 50.016 20.9973 49.5135 19.9443C48.6599 18.2053 46.3785 17.0806 44.5357 15.9558C43.8873 15.6388 43.1649 15.5037 42.4457 15.5649H42.4617ZM24.7923 26.5733C26.0288 18.8196 26.2123 12.0231 22.2636 5.91257C21.3382 4.48466 19.0727 3.91031 17.4773 2.94507C16.536 4.5405 15.14 6.08807 14.7411 7.84303C13.1457 14.9108 16.5918 20.3831 20.9952 25.3927C21.6414 26.1107 23.1889 26.0947 24.7923 26.5733ZM41.0976 49.2683C45.134 49.2683 47.7904 47.1942 47.2719 44.4182C46.4742 40.1265 39.8372 34.5983 35.4657 34.5664C33.296 34.5664 30.5438 37.3106 30.6795 39.3527C30.9906 43.8837 36.5985 49.2523 41.0976 49.2683ZM30.5917 51.9247C30.2806 49.9783 29.9775 47.9361 29.5866 45.8381C29.4027 45.0668 29.1352 44.3178 28.7889 43.6045C27.3211 40.1983 25.0157 39.7117 22.4072 42.3441C18.9291 45.8541 20.2693 49.9304 21.434 53.8153C22.1758 56.2722 23.5718 58.4819 26.8425 57.756C29.9376 57.0779 30.5119 54.7406 30.5917 51.9247ZM19.8465 37.853C15.6904 37.4063 11.9651 36.6325 8.18394 36.7043C5.12072 36.7761 3.16632 38.7305 3.28598 42.2245C3.40563 45.7185 5.85461 46.2131 8.48707 46.3088C13.8477 46.588 17.5491 43.9795 19.8465 37.853ZM4.2911 29.2058C5.02499 29.8679 6.18168 31.4713 7.75317 32.2052C9.83298 33.0189 12.0108 33.5553 14.2306 33.8006C15.2995 33.9761 17.1024 34.0479 17.4215 33.5055C18.0437 32.4046 18.5223 30.3146 17.916 29.5887C16.0255 27.1956 13.9275 24.7625 11.3349 23.2549C7.56172 21.0691 4.12358 23.6059 4.2911 29.2058ZM25.3108 39.4086C27.0977 37.0154 28.8686 35.6035 29.1558 33.9522C29.5228 31.8941 28.414 29.477 25.6937 29.7722C23.3963 30.0195 20.5246 30.9209 21.1149 34.024C21.426 35.6673 23.3564 37.0074 25.3108 39.4086Z" fill="#55BBDA"/>
</svg>
