<svg width="175" height="86" viewBox="0 0 175 86" fill="none" xmlns="http://www.w3.org/2000/svg">
<path d="M10.264 78.7034L8.46774 85.4346L6.67146 78.7034L0 76.8911L6.67146 75.0787L8.46774 68.3476L10.264 75.0787L16.9355 76.8911L10.264 78.7034Z" fill="#64A859"/>
<path d="M32.8447 78.7034L31.0484 85.4346L29.2521 78.7034L22.5806 76.8911L29.2521 75.0787L31.0484 68.3476L32.8447 75.0787L39.5161 76.8911L32.8447 78.7034Z" fill="#64A859"/>
<path d="M53.629 85.4346L55.4253 78.7034L62.0968 76.8911L55.4253 75.0787L53.629 68.3476L51.8328 75.0787L45.1613 76.8911L51.8328 78.7034L53.629 85.4346Z" fill="#64A859"/>
<path d="M78.006 78.7034L76.2097 85.4346L74.4134 78.7034L67.7419 76.8911L74.4134 75.0787L76.2097 68.3476L78.006 75.0787L84.6774 76.8911L78.006 78.7034Z" fill="#64A859"/>
<path d="M98.7903 85.4346L100.587 78.7034L107.258 76.8911L100.587 75.0787L98.7903 68.3476L96.994 75.0787L90.3226 76.8911L96.994 78.7034L98.7903 85.4346Z" fill="#64A859"/>
<path d="M123.167 78.7034L121.371 85.4346L119.575 78.7034L112.903 76.8911L119.575 75.0787L121.371 68.3476L123.167 75.0787L129.839 76.8911L123.167 78.7034Z" fill="#64A859"/>
<path d="M143.952 85.4346L145.748 78.7034L152.419 76.8911L145.748 75.0787L143.952 68.3476L142.155 75.0787L135.484 76.8911L142.155 78.7034L143.952 85.4346Z" fill="#64A859"/>
<path d="M168.329 78.7034L166.532 85.4346L164.736 78.7034L158.065 76.8911L164.736 75.0787L166.532 68.3476L168.329 75.0787L175 76.8911L168.329 78.7034Z" fill="#64A859"/>
<path d="M8.46774 62.652L10.264 55.9208L16.9355 54.1085L10.264 52.2961L8.46774 45.565L6.67146 52.2961L0 54.1085L6.67146 55.9208L8.46774 62.652Z" fill="#64A859"/>
<path d="M32.8447 55.9208L31.0484 62.652L29.2521 55.9208L22.5806 54.1085L29.2521 52.2961L31.0484 45.565L32.8447 52.2961L39.5161 54.1085L32.8447 55.9208Z" fill="#64A859"/>
<path d="M53.629 62.652L55.4253 55.9208L62.0968 54.1085L55.4253 52.2961L53.629 45.565L51.8328 52.2961L45.1613 54.1085L51.8328 55.9208L53.629 62.652Z" fill="#64A859"/>
<path d="M78.006 55.9208L76.2097 62.652L74.4134 55.9208L67.7419 54.1085L74.4134 52.2961L76.2097 45.565L78.006 52.2961L84.6774 54.1085L78.006 55.9208Z" fill="#64A859"/>
<path d="M98.7903 62.652L100.587 55.9208L107.258 54.1085L100.587 52.2961L98.7903 45.565L96.994 52.2961L90.3226 54.1085L96.994 55.9208L98.7903 62.652Z" fill="#64A859"/>
<path d="M123.167 55.9208L121.371 62.652L119.575 55.9208L112.903 54.1085L119.575 52.2961L121.371 45.565L123.167 52.2961L129.839 54.1085L123.167 55.9208Z" fill="#64A859"/>
<path d="M143.952 62.652L145.748 55.9208L152.419 54.1085L145.748 52.2961L143.952 45.565L142.155 52.2961L135.484 54.1085L142.155 55.9208L143.952 62.652Z" fill="#64A859"/>
<path d="M168.329 55.9208L166.532 62.652L164.736 55.9208L158.065 54.1085L164.736 52.2961L166.532 45.565L168.329 52.2961L175 54.1085L168.329 55.9208Z" fill="#64A859"/>
<path d="M8.46774 39.8694L10.264 33.1382L16.9355 31.3259L10.264 29.5135L8.46774 22.7824L6.67146 29.5135L0 31.3259L6.67146 33.1382L8.46774 39.8694Z" fill="#64A859"/>
<path d="M32.8447 33.1382L31.0484 39.8694L29.2521 33.1382L22.5806 31.3259L29.2521 29.5135L31.0484 22.7824L32.8447 29.5135L39.5161 31.3259L32.8447 33.1382Z" fill="#64A859"/>
<path d="M53.629 39.8694L55.4253 33.1382L62.0968 31.3259L55.4253 29.5135L53.629 22.7824L51.8328 29.5135L45.1613 31.3259L51.8328 33.1382L53.629 39.8694Z" fill="#64A859"/>
<path d="M78.006 33.1382L76.2097 39.8694L74.4134 33.1382L67.7419 31.3259L74.4134 29.5135L76.2097 22.7824L78.006 29.5135L84.6774 31.3259L78.006 33.1382Z" fill="#64A859"/>
<path d="M98.7903 39.8694L100.587 33.1382L107.258 31.3259L100.587 29.5135L98.7903 22.7824L96.994 29.5135L90.3226 31.3259L96.994 33.1382L98.7903 39.8694Z" fill="#64A859"/>
<path d="M123.167 33.1382L121.371 39.8694L119.575 33.1382L112.903 31.3259L119.575 29.5135L121.371 22.7824L123.167 29.5135L129.839 31.3259L123.167 33.1382Z" fill="#64A859"/>
<path d="M143.952 39.8694L145.748 33.1382L152.419 31.3259L145.748 29.5135L143.952 22.7824L142.155 29.5135L135.484 31.3259L142.155 33.1382L143.952 39.8694Z" fill="#64A859"/>
<path d="M168.329 33.1382L166.532 39.8694L164.736 33.1382L158.065 31.3259L164.736 29.5135L166.532 22.7824L168.329 29.5135L175 31.3259L168.329 33.1382Z" fill="#64A859"/>
<path d="M8.46774 17.0867L10.264 10.3556L16.9355 8.54327L10.264 6.73092L8.46774 -0.000213623L6.67146 6.73092L0 8.54327L6.67146 10.3556L8.46774 17.0867Z" fill="#64A859"/>
<path d="M32.8447 10.3556L31.0484 17.0867L29.2521 10.3556L22.5806 8.54327L29.2521 6.73092L31.0484 -0.000213623L32.8447 6.73092L39.5161 8.54327L32.8447 10.3556Z" fill="#64A859"/>
<path d="M53.629 17.0867L55.4253 10.3556L62.0968 8.54327L55.4253 6.73092L53.629 -0.000213623L51.8328 6.73092L45.1613 8.54327L51.8328 10.3556L53.629 17.0867Z" fill="#64A859"/>
<path d="M78.006 10.3556L76.2097 17.0867L74.4134 10.3556L67.7419 8.54327L74.4134 6.73092L76.2097 -0.000213623L78.006 6.73092L84.6774 8.54327L78.006 10.3556Z" fill="#64A859"/>
<path d="M98.7903 17.0867L100.587 10.3556L107.258 8.54327L100.587 6.73092L98.7903 -0.000213623L96.994 6.73092L90.3226 8.54327L96.994 10.3556L98.7903 17.0867Z" fill="#64A859"/>
<path d="M123.167 10.3556L121.371 17.0867L119.575 10.3556L112.903 8.54327L119.575 6.73092L121.371 -0.000213623L123.167 6.73092L129.839 8.54327L123.167 10.3556Z" fill="#64A859"/>
<path d="M143.952 17.0867L145.748 10.3556L152.419 8.54327L145.748 6.73092L143.952 -0.000213623L142.155 6.73092L135.484 8.54327L142.155 10.3556L143.952 17.0867Z" fill="#64A859"/>
<path d="M168.329 10.3556L166.532 17.0867L164.736 10.3556L158.065 8.54327L164.736 6.73092L166.532 -0.000213623L168.329 6.73092L175 8.54327L168.329 10.3556Z" fill="#64A859"/>
</svg>
