<svg width="69" height="196" viewBox="0 0 69 196" fill="none" xmlns="http://www.w3.org/2000/svg">
<path d="M43.6552 2C20.6495 2 2 11.6102 2 23.465C2 35.3198 20.6495 44.9301 43.6552 44.9301C56.5481 44.9301 67 40.8619 67 35.8436C67 30.8253 56.5481 26.7572 43.6552 26.7572C20.6495 26.7572 2 36.3674 2 48.2222C2 60.0771 20.6495 69.6876 43.6552 69.6876C56.5481 69.6876 67 65.6193 67 60.6008C67 55.5825 56.5481 51.5144 43.6552 51.5144C20.6495 51.5144 2 61.1836 2 73.1111C2 85.0385 20.6495 94.708 43.6552 94.708C56.5481 94.708 67 90.6397 67 85.6213C67 80.6028 56.5481 76.5353 43.6552 76.5353C20.6495 76.5353 2 86.1451 2 98C2 109.855 20.6495 119.465 43.6552 119.465C56.5481 119.465 67 115.397 67 110.379C67 105.36 56.5481 101.292 43.6552 101.292C20.6495 101.292 2 110.903 2 122.757C2 134.612 20.6495 144.222 43.6552 144.222C56.5481 144.222 67 140.154 67 135.136C67 130.118 56.5481 126.049 43.6552 126.049C20.6495 126.049 2 135.66 2 147.514C2 159.369 20.6495 168.98 43.6552 168.98C56.5481 168.98 67 164.911 67 159.893C67 154.875 56.5481 150.807 43.6552 150.807C20.6495 150.807 2 160.476 2 172.403C2 184.33 20.6495 194 43.6552 194" stroke="#6B318A" stroke-width="3" stroke-linecap="round"/>
</svg>
