<svg width="36" height="33" viewBox="0 0 36 33" fill="none" xmlns="http://www.w3.org/2000/svg">
<path fill-rule="evenodd" clip-rule="evenodd" d="M13.8246 0C12.9464 0 12.2877 0.90411 12.2877 1.80822V15.5959C12.2877 15.8219 12.0682 16.0479 12.0682 16.0479L1.09027 22.3767C-0.00752085 22.8288 -0.227079 23.9589 0.212037 24.863L4.38364 32.0959C4.82276 33 5.92055 33.226 6.79878 32.774L17.7767 26.4452H17.9962H18.2158L29.1937 32.774C30.0719 33.226 31.1697 33 31.6088 32.0959L35.7804 24.863C36.2196 23.9589 36 22.8288 35.1218 22.3767L24.1439 16.0479C23.9243 16.0479 23.9243 15.8219 23.9243 15.5959V1.80822C23.9243 0.90411 23.0461 0 22.1678 0H13.8246Z" fill="#E25635"/>
</svg>
