<svg width="111" height="66" viewBox="0 0 111 66" fill="none" xmlns="http://www.w3.org/2000/svg">
<path d="M110.169 5.90295C110.098 5.6426 109.966 5.4023 109.786 5.20091C109.606 4.99952 109.381 4.84254 109.129 4.74231C108.877 4.64208 108.606 4.60132 108.336 4.62324C108.066 4.64517 107.804 4.72917 107.572 4.86865C103.054 7.55783 98.1983 9.94965 93.7191 5.96759C90.681 3.25256 87.6688 1.06759 83.5401 0.291869C80.0708 -0.336162 76.4929 0.0542529 73.2425 1.41554C69.992 2.77682 67.2094 5.05019 65.2337 7.95862C64.441 7.09409 63.572 6.30225 62.637 5.59266C58.742 2.58026 53.4318 1.71403 49.1343 4.49371C47.6786 5.44541 46.4453 6.69755 45.5179 8.1653C44.5905 9.63305 43.9908 11.2821 43.7592 13.0008C43.6003 12.944 43.4343 12.9092 43.2659 12.8974C38.1634 12.6259 32.6066 13.0138 28.5039 16.414C26.6941 17.7856 25.3692 19.6947 24.7204 21.8653C24.0716 24.0359 24.1326 26.3557 24.8945 28.4895C26.7381 33.1309 31.3861 36.1821 35.359 38.8325L36.982 39.9056C36.6971 39.9435 36.4329 40.0746 36.2308 40.2781C36.0287 40.4817 35.9002 40.7463 35.8654 41.0304C34.8787 46.9776 30.4903 51.9293 24.1804 51.9035C23.7109 51.9069 23.2618 52.095 22.931 52.4268C22.6003 52.7586 22.4147 53.2072 22.4147 53.6747C22.3618 55.1737 21.8023 56.611 20.8268 57.7537C19.8512 58.8965 18.5167 59.6778 17.0396 59.971C15.5184 60.2363 13.9518 59.9763 12.5993 59.2341C11.4827 58.6006 10.8076 57.4887 9.72997 56.8422C8.21093 55.9372 6.70486 56.4932 5.31565 57.6438C5.38056 56.9974 5.40653 56.351 5.40653 55.6657C5.40653 51.7871 5.1988 48.2058 6.96453 44.5599C8.45701 41.4244 10.7771 38.7517 13.6768 36.8274C16.5765 34.9032 19.9467 33.7998 23.4274 33.6351C23.7717 33.6351 24.1019 33.4989 24.3454 33.2565C24.5889 33.014 24.7257 32.6851 24.7257 32.3423C24.7257 31.9994 24.5889 31.6705 24.3454 31.4281C24.1019 31.1856 23.7717 31.0494 23.4274 31.0494C20.0006 31.1449 16.6452 32.0462 13.6351 33.6798C10.625 35.3133 8.04559 37.6327 6.10763 40.4486C4.1383 43.2425 2.902 46.4825 2.51125 49.8737C1.97893 54.9547 3.14743 59.3116 0.23917 63.9401C-0.760546 65.5433 1.62838 66.7974 2.71898 65.3882C3.86312 63.8666 5.09424 62.4119 6.40624 61.0312C7.44491 59.9452 7.40596 59.428 8.66534 60.2167C9.0863 60.5577 9.48932 60.9202 9.87279 61.3027C11.8508 62.8243 14.3273 63.5572 16.8189 63.3583C18.955 63.1572 20.9683 62.2726 22.5575 60.837C24.1466 59.4013 25.2262 57.4918 25.6345 55.3942C32.6845 54.7478 39.1761 48.8523 39.0074 41.5087C39.0137 41.4313 39.0137 41.3535 39.0074 41.276C43.2269 44.004 47.5374 46.6027 51.8089 49.2531C53.8992 50.5459 56.4699 52.899 58.8588 53.5454C61.0271 54.1401 62.1566 52.1362 63.2083 50.6235C66.6021 45.846 69.0924 40.492 70.5568 34.8246C71.1832 32.2189 71.5184 29.5524 71.5565 26.8734C73.0128 27.5184 74.6087 27.7877 76.1971 27.6567C77.7854 27.5256 79.3151 26.9984 80.6449 26.1235C81.6386 26.7981 82.7773 27.2315 83.9696 27.389C85.1619 27.5464 86.3746 27.4235 87.5106 27.0301C88.6466 26.6367 89.6742 25.9837 90.5111 25.1235C91.348 24.2634 91.9709 23.2199 92.3298 22.0768C94.6658 23.2102 97.2896 23.6195 99.8618 23.2518C102.434 22.8841 104.836 21.7562 106.758 20.0142C108.679 18.2721 110.031 15.996 110.639 13.4802C111.248 10.9645 111.084 8.32492 110.169 5.90295V5.90295ZM61.3646 46.6415C60.8674 47.7078 60.2108 48.693 59.4171 49.5634C60.1442 50.2615 59.9624 50.2227 58.8848 49.4599L56.9503 48.2963L49.2512 43.6032C44.4344 40.6813 39.5397 37.8499 34.9695 34.5531C30.7759 31.6958 25.1671 27.1578 28.2572 21.508C31.1784 16.1425 37.8778 15.6642 43.2918 15.9357C43.4951 15.9467 43.6984 15.9159 43.8891 15.8452C43.952 16.236 44.0476 16.6208 44.1747 16.9958C44.707 18.6636 47.6802 18.4956 47.4205 16.5692C46.8233 12.0829 49.3551 6.96311 54.3666 6.5106C59.6898 6.03224 63.7146 11.2684 65.6102 15.5607C70.1933 25.852 67.1292 37.4879 61.3646 46.6415ZM91.7196 17.5388C91.4445 17.3806 91.1325 17.297 90.8148 17.2963C90.4971 17.2956 90.1848 17.3778 89.9089 17.5348C89.6331 17.6917 89.4033 17.918 89.2427 18.1909C89.082 18.4638 88.9959 18.7739 88.9931 19.0903C89.4475 23.2275 85.0981 25.671 82.0081 22.594C81.6581 22.262 81.1932 22.0768 80.7098 22.0768C80.2264 22.0768 79.7615 22.262 79.4114 22.594C77.1004 24.5074 74.4908 24.2747 71.8551 23.2663C71.7099 23.2087 71.5566 23.1738 71.4007 23.1628C71.0693 18.6128 69.6009 14.2174 67.1292 10.3763L67.2071 10.2729C68.3802 8.43618 69.9374 6.87321 71.7726 5.69071C73.6078 4.50822 75.6776 3.73404 77.8407 3.42106C80.0039 3.10808 82.2094 3.26366 84.3066 3.87718C86.4038 4.49071 88.3434 5.54772 89.9928 6.97604C92.7583 9.44543 94.9784 11.7209 98.9513 11.6304C101.877 11.4233 104.714 10.5378 107.235 9.04464C107.4 10.9063 107.017 12.7756 106.134 14.4245C105.25 16.0735 103.904 17.4309 102.26 18.3313C100.615 19.2317 98.7428 19.6362 96.8713 19.4955C94.9998 19.3548 93.2098 18.6749 91.7196 17.5388V17.5388Z" fill="#EE8DB9"/>
</svg>
