<svg width="44" height="32" viewBox="0 0 44 32" fill="none" xmlns="http://www.w3.org/2000/svg">
<path d="M18.9895 22.8571C18.9895 17.3399 15.4386 14.3448 11.4246 14.3448C9.41754 14.3448 8.18246 14.8177 7.25614 15.4483C7.25614 10.8768 11.2702 6.93595 16.6737 5.83251V0C7.25614 1.57635 0 9.93103 0 19.7044C0 27.5862 4.63158 32 10.0351 32C15.4386 32 18.9895 28.0591 18.9895 22.8571ZM44 22.8571C44 17.3399 40.4491 14.3448 36.4351 14.3448C34.5825 14.3448 33.193 14.6601 32.2667 15.2906C32.2667 10.8768 36.2807 6.93595 41.6842 5.83251V0C32.1123 1.57635 24.8561 9.93103 24.8561 19.7044C24.8561 27.5862 29.6421 32 34.8912 32C40.2947 32 44 28.0591 44 22.8571Z" fill="#E25536"/>
</svg>
